<svg width="60" height="60" viewBox="0 0 60 60" fill="none" xmlns="http://www.w3.org/2000/svg">
<mask id="mask0_233_421" style="mask-type:alpha" maskUnits="userSpaceOnUse" x="0" y="0" width="60" height="60">
<rect width="60" height="60" fill="#D9D9D9"/>
</mask>
<g mask="url(#mask0_233_421)">
<path d="M22.5 40C23.875 40 25.0521 39.5104 26.0312 38.5312C27.0104 37.5521 27.5 36.375 27.5 35C27.5 33.625 27.0104 32.4479 26.0312 31.4688C25.0521 30.4896 23.875 30 22.5 30C21.125 30 19.9479 30.4896 18.9688 31.4688C17.9896 32.4479 17.5 33.625 17.5 35C17.5 36.375 17.9896 37.5521 18.9688 38.5312C19.9479 39.5104 21.125 40 22.5 40ZM37.5 40C38.875 40 40.0521 39.5104 41.0312 38.5312C42.0104 37.5521 42.5 36.375 42.5 35C42.5 33.625 42.0104 32.4479 41.0312 31.4688C40.0521 30.4896 38.875 30 37.5 30C36.125 30 34.9479 30.4896 33.9688 31.4688C32.9896 32.4479 32.5 33.625 32.5 35C32.5 36.375 32.9896 37.5521 33.9688 38.5312C34.9479 39.5104 36.125 40 37.5 40ZM30 27.5C31.375 27.5 32.5521 27.0104 33.5312 26.0312C34.5104 25.0521 35 23.875 35 22.5C35 21.125 34.5104 19.9479 33.5312 18.9688C32.5521 17.9896 31.375 17.5 30 17.5C28.625 17.5 27.4479 17.9896 26.4688 18.9688C25.4896 19.9479 25 21.125 25 22.5C25 23.875 25.4896 25.0521 26.4688 26.0312C27.4479 27.0104 28.625 27.5 30 27.5ZM30 55C26.5417 55 23.2917 54.3438 20.25 53.0312C17.2083 51.7188 14.5625 49.9375 12.3125 47.6875C10.0625 45.4375 8.28125 42.7917 6.96875 39.75C5.65625 36.7083 5 33.4583 5 30C5 26.5417 5.65625 23.2917 6.96875 20.25C8.28125 17.2083 10.0625 14.5625 12.3125 12.3125C14.5625 10.0625 17.2083 8.28125 20.25 6.96875C23.2917 5.65625 26.5417 5 30 5C33.4583 5 36.7083 5.65625 39.75 6.96875C42.7917 8.28125 45.4375 10.0625 47.6875 12.3125C49.9375 14.5625 51.7188 17.2083 53.0312 20.25C54.3438 23.2917 55 26.5417 55 30C55 33.4583 54.3438 36.7083 53.0312 39.75C51.7188 42.7917 49.9375 45.4375 47.6875 47.6875C45.4375 49.9375 42.7917 51.7188 39.75 53.0312C36.7083 54.3438 33.4583 55 30 55ZM30 50C35.5833 50 40.3125 48.0625 44.1875 44.1875C48.0625 40.3125 50 35.5833 50 30C50 24.4167 48.0625 19.6875 44.1875 15.8125C40.3125 11.9375 35.5833 10 30 10C24.4167 10 19.6875 11.9375 15.8125 15.8125C11.9375 19.6875 10 24.4167 10 30C10 35.5833 11.9375 40.3125 15.8125 44.1875C19.6875 48.0625 24.4167 50 30 50Z" fill="#ACDD33"/>
</g>
</svg>
