<svg width="60" height="60" viewBox="0 0 60 60" fill="none" xmlns="http://www.w3.org/2000/svg">
<mask id="mask0_233_408" style="mask-type:alpha" maskUnits="userSpaceOnUse" x="0" y="0" width="60" height="60">
<rect width="60" height="60" fill="#D9D9D9"/>
</mask>
<g mask="url(#mask0_233_408)">
<path d="M30 37.5C32.0833 37.5 33.8542 36.7708 35.3125 35.3125C36.7708 33.8542 37.5 32.0833 37.5 30C37.5 27.9167 36.7708 26.1458 35.3125 24.6875C33.8542 23.2292 32.0833 22.5 30 22.5C27.9167 22.5 26.1458 23.2292 24.6875 24.6875C23.2292 26.1458 22.5 27.9167 22.5 30C22.5 32.0833 23.2292 33.8542 24.6875 35.3125C26.1458 36.7708 27.9167 37.5 30 37.5ZM30 42.5C26.5417 42.5 23.5938 41.2812 21.1562 38.8438C18.7188 36.4062 17.5 33.4583 17.5 30C17.5 26.5417 18.7188 23.5938 21.1562 21.1562C23.5938 18.7188 26.5417 17.5 30 17.5C33.4583 17.5 36.4062 18.7188 38.8438 21.1562C41.2812 23.5938 42.5 26.5417 42.5 30C42.5 33.4583 41.2812 36.4062 38.8438 38.8438C36.4062 41.2812 33.4583 42.5 30 42.5ZM12.5 32.5H2.5V27.5H12.5V32.5ZM57.5 32.5H47.5V27.5H57.5V32.5ZM27.5 12.5V2.5H32.5V12.5H27.5ZM27.5 57.5V47.5H32.5V57.5H27.5ZM16 19.375L9.6875 13.3125L13.25 9.625L19.25 15.875L16 19.375ZM46.75 50.375L40.6875 44.0625L44 40.625L50.3125 46.6875L46.75 50.375ZM40.625 16L46.6875 9.6875L50.375 13.25L44.125 19.25L40.625 16ZM9.625 46.75L15.9375 40.6875L19.375 44L13.3125 50.3125L9.625 46.75Z" fill="#ACDD33"/>
</g>
</svg>
