<svg width="60" height="60" viewBox="0 0 60 60" fill="none" xmlns="http://www.w3.org/2000/svg">
<mask id="mask0_233_412" style="mask-type:alpha" maskUnits="userSpaceOnUse" x="0" y="0" width="60" height="60">
<rect width="60" height="60" fill="#D9D9D9"/>
</mask>
<g mask="url(#mask0_233_412)">
<path d="M5 52.5V22.5L25 7.5L38.4375 17.625C37.3958 17.75 36.4167 17.9896 35.5 18.3438C34.5833 18.6979 33.7083 19.1667 32.875 19.75L25 13.75L10 25V47.5H20V52.5H5ZM25 52.5V47.75C25 46.875 25.2188 46.0521 25.6562 45.2812C26.0938 44.5104 26.6875 43.8958 27.4375 43.4375C29.3542 42.3125 31.3646 41.4583 33.4688 40.875C35.5729 40.2917 37.75 40 40 40C42.25 40 44.4271 40.2917 46.5313 40.875C48.6354 41.4583 50.6458 42.3125 52.5625 43.4375C53.3125 43.8958 53.9063 44.5104 54.3438 45.2812C54.7813 46.0521 55 46.875 55 47.75V52.5H25ZM30.375 47.5H49.625C48.1667 46.6667 46.625 46.0417 45 45.625C43.375 45.2083 41.7083 45 40 45C38.2917 45 36.625 45.2083 35 45.625C33.375 46.0417 31.8333 46.6667 30.375 47.5ZM40 37.5C37.9167 37.5 36.1458 36.7708 34.6875 35.3125C33.2292 33.8542 32.5 32.0833 32.5 30C32.5 27.9167 33.2292 26.1458 34.6875 24.6875C36.1458 23.2292 37.9167 22.5 40 22.5C42.0833 22.5 43.8542 23.2292 45.3125 24.6875C46.7708 26.1458 47.5 27.9167 47.5 30C47.5 32.0833 46.7708 33.8542 45.3125 35.3125C43.8542 36.7708 42.0833 37.5 40 37.5ZM40 32.5C40.7083 32.5 41.3021 32.2604 41.7812 31.7813C42.2604 31.3021 42.5 30.7083 42.5 30C42.5 29.2917 42.2604 28.6979 41.7812 28.2188C41.3021 27.7396 40.7083 27.5 40 27.5C39.2917 27.5 38.6979 27.7396 38.2188 28.2188C37.7396 28.6979 37.5 29.2917 37.5 30C37.5 30.7083 37.7396 31.3021 38.2188 31.7813C38.6979 32.2604 39.2917 32.5 40 32.5Z" fill="#FFA7C9"/>
</g>
</svg>
