<svg width="80" height="80" viewBox="0 0 80 80" fill="none" xmlns="http://www.w3.org/2000/svg">
<rect width="80" height="80" rx="40" fill="#022213"/>
<mask id="mask0_336_722" style="mask-type:alpha" maskUnits="userSpaceOnUse" x="2" y="3" width="75" height="75">
<rect x="2" y="3" width="75" height="75" fill="#D9D9D9"/>
</mask>
<g mask="url(#mask0_336_722)">
<path d="M20.75 46.75C19.0312 46.75 17.5599 46.138 16.3359 44.9141C15.112 43.6901 14.5 42.2188 14.5 40.5C14.5 38.7812 15.112 37.3099 16.3359 36.0859C17.5599 34.862 19.0312 34.25 20.75 34.25C22.4688 34.25 23.9401 34.862 25.1641 36.0859C26.388 37.3099 27 38.7812 27 40.5C27 42.2188 26.388 43.6901 25.1641 44.9141C23.9401 46.138 22.4688 46.75 20.75 46.75ZM39.5 46.75C37.7812 46.75 36.3099 46.138 35.0859 44.9141C33.862 43.6901 33.25 42.2188 33.25 40.5C33.25 38.7812 33.862 37.3099 35.0859 36.0859C36.3099 34.862 37.7812 34.25 39.5 34.25C41.2188 34.25 42.6901 34.862 43.9141 36.0859C45.138 37.3099 45.75 38.7812 45.75 40.5C45.75 42.2188 45.138 43.6901 43.9141 44.9141C42.6901 46.138 41.2188 46.75 39.5 46.75ZM58.25 46.75C56.5312 46.75 55.0599 46.138 53.8359 44.9141C52.612 43.6901 52 42.2188 52 40.5C52 38.7812 52.612 37.3099 53.8359 36.0859C55.0599 34.862 56.5312 34.25 58.25 34.25C59.9688 34.25 61.4401 34.862 62.6641 36.0859C63.888 37.3099 64.5 38.7812 64.5 40.5C64.5 42.2188 63.888 43.6901 62.6641 44.9141C61.4401 46.138 59.9688 46.75 58.25 46.75Z" fill="#ACDD33"/>
</g>
</svg>
