<svg width="60" height="60" viewBox="0 0 60 60" fill="none" xmlns="http://www.w3.org/2000/svg">
<mask id="mask0_370_687" style="mask-type:alpha" maskUnits="userSpaceOnUse" x="0" y="0" width="60" height="60">
<rect width="60" height="60" fill="#D9D9D9"/>
</mask>
<g mask="url(#mask0_370_687)">
<path d="M29.5 58C21.8611 58 15.3681 55.3264 10.0208 49.9792C4.67361 44.6319 2 38.1389 2 30.5C2 22.8611 4.67361 16.3681 10.0208 11.0208C15.3681 5.67361 21.8611 3 29.5 3C30.213 3 30.9132 3.02546 31.6007 3.07639C32.2882 3.12731 32.963 3.2037 33.625 3.30556C31.537 4.78241 29.8692 6.70486 28.6215 9.07292C27.3738 11.441 26.75 14 26.75 16.75C26.75 21.3333 28.3542 25.2292 31.5625 28.4375C34.7708 31.6458 38.6667 33.25 43.25 33.25C46.0509 33.25 48.6227 32.6262 50.9653 31.3785C53.3079 30.1308 55.2176 28.463 56.6944 26.375C56.7963 27.037 56.8727 27.7118 56.9236 28.3993C56.9745 29.0868 57 29.787 57 30.5C57 38.1389 54.3264 44.6319 48.9792 49.9792C43.6319 55.3264 37.1389 58 29.5 58ZM29.5 51.8889C33.9815 51.8889 38.0046 50.6539 41.5694 48.184C45.1343 45.7141 47.7315 42.4931 49.3611 38.5208C48.3426 38.7755 47.3241 38.9792 46.3056 39.1319C45.287 39.2847 44.2685 39.3611 43.25 39.3611C36.9861 39.3611 31.6516 37.1586 27.2465 32.7535C22.8414 28.3484 20.6389 23.0139 20.6389 16.75C20.6389 15.7315 20.7153 14.713 20.8681 13.6944C21.0208 12.6759 21.2245 11.6574 21.4792 10.6389C17.5069 12.2685 14.2859 14.8657 11.816 18.4306C9.34607 21.9954 8.11111 26.0185 8.11111 30.5C8.11111 36.4074 10.1991 41.4491 14.375 45.625C18.5509 49.8009 23.5926 51.8889 29.5 51.8889Z" fill="#ACDD33"/>
</g>
</svg>
