<svg width="60" height="60" viewBox="0 0 60 60" fill="none" xmlns="http://www.w3.org/2000/svg">
<mask id="mask0_233_415" style="mask-type:alpha" maskUnits="userSpaceOnUse" x="0" y="0" width="60" height="60">
<rect width="60" height="60" fill="#D9D9D9"/>
</mask>
<g mask="url(#mask0_233_415)">
<path d="M12.5 52.5C11.125 52.5 9.94792 52.0104 8.96875 51.0312C7.98958 50.0521 7.5 48.875 7.5 47.5V12.5C7.5 11.125 7.98958 9.94792 8.96875 8.96875C9.94792 7.98958 11.125 7.5 12.5 7.5H47.5C48.875 7.5 50.0521 7.98958 51.0312 8.96875C52.0104 9.94792 52.5 11.125 52.5 12.5V18.75H47.5V12.5H12.5V47.5H47.5V41.25H52.5V47.5C52.5 48.875 52.0104 50.0521 51.0312 51.0312C50.0521 52.0104 48.875 52.5 47.5 52.5H12.5ZM32.5 42.5C31.125 42.5 29.9479 42.0104 28.9688 41.0312C27.9896 40.0521 27.5 38.875 27.5 37.5V22.5C27.5 21.125 27.9896 19.9479 28.9688 18.9688C29.9479 17.9896 31.125 17.5 32.5 17.5H50C51.375 17.5 52.5521 17.9896 53.5312 18.9688C54.5104 19.9479 55 21.125 55 22.5V37.5C55 38.875 54.5104 40.0521 53.5312 41.0312C52.5521 42.0104 51.375 42.5 50 42.5H32.5ZM50 37.5V22.5H32.5V37.5H50ZM40 33.75C41.0417 33.75 41.9271 33.3854 42.6562 32.6562C43.3854 31.9271 43.75 31.0417 43.75 30C43.75 28.9583 43.3854 28.0729 42.6562 27.3438C41.9271 26.6146 41.0417 26.25 40 26.25C38.9583 26.25 38.0729 26.6146 37.3438 27.3438C36.6146 28.0729 36.25 28.9583 36.25 30C36.25 31.0417 36.6146 31.9271 37.3438 32.6562C38.0729 33.3854 38.9583 33.75 40 33.75Z" fill="#ACDD33"/>
</g>
</svg>
